<svg xmlns="http://www.w3.org/2000/svg" width="64" height="64" viewBox="0 0 64 64"><defs><linearGradient id="b" x2="1" y2="1"><stop stop-color="#4485bd"/><stop offset="1" stop-color="#246198"/></linearGradient><linearGradient id="y" x2="1" y2="1"><stop stop-color="#ffe770"/><stop offset="1" stop-color="#ffc33f"/></linearGradient></defs><path d="M32 3c-14 0-17 3-17 10v12h21v4H13C8 29 4 34 4 43v3c0 7 4 11 10 11h9V43c0-6 4-10 11-10h9c8 0 10-6 10-13v-6C53 6 49 3 32 3Z" fill="url(#b)"/><circle cx="23" cy="12" r="2.5" fill="white"/><path d="M32 61c14 0 17-3 17-10V39H28v-4h23c6 0 10-6 10-14v-3c0-7-4-11-10-11h-9v14c0 6-4 10-11 10h-9c-8 0-10 6-10 13v6c0 8 4 11 20 11Z" fill="url(#y)"/><circle cx="40" cy="52" r="2.5" fill="white"/></svg>